<svg width="61" height="61" viewBox="0 0 61 61" fill="none" xmlns="http://www.w3.org/2000/svg">
<rect x="0.5" y="0.5" width="60" height="60" rx="30" fill="#5BC05D"/>
<g clip-path="url(#clip0_2299_7011)">
<mask id="mask0_2299_7011" style="mask-type:luminance" maskUnits="userSpaceOnUse" x="8" y="22" width="46" height="18">
<path d="M54 22H8V40H54V22Z" fill="white"/>
</mask>
<g mask="url(#mask0_2299_7011)">
<path d="M21.127 29.2568L20.6364 32.0816H11.7942L12.2847 29.2568H21.127ZM14.5701 22.0983L11.5429 39.6747H8.03711L11.0523 22.0983H14.5701ZM24.8361 22.0983L21.7578 38.1566L20.6364 37.2892L21.3424 22.0983H24.8361Z" fill="white"/>
<path d="M30.7151 22.0983H34.2088L32.2466 33.6991C32.0632 35.0029 31.6364 36.1256 30.9662 37.0672C30.3042 38.0007 29.4507 38.717 28.4057 39.2159C27.3688 39.7069 26.2002 39.9443 24.8999 39.9282C23.6875 39.904 22.6306 39.6385 21.7292 39.1314C20.8358 38.6164 20.1657 37.9002 19.719 36.9827C19.2724 36.0572 19.1248 34.9667 19.2763 33.7113L21.2386 22.0983H24.7324L22.7821 33.7233C22.7103 34.3269 22.7303 34.8822 22.842 35.3892C22.9616 35.8882 23.2008 36.2946 23.5598 36.6085C23.9267 36.9143 24.4453 37.0752 25.1153 37.0913C25.8252 37.1154 26.4315 36.9867 26.934 36.705C27.4366 36.4233 27.8394 36.0249 28.1425 35.5099C28.4457 34.9868 28.649 34.3872 28.7528 33.7113L30.7151 22.0983Z" fill="white"/>
<path d="M35.9127 31.9608H31.4138L31.8325 29.4741L35.3024 29.4862C35.829 29.4862 36.3315 29.4137 36.8101 29.2689C37.2967 29.1159 37.7035 28.8705 38.0305 28.5325C38.3655 28.1864 38.5769 27.7237 38.6646 27.1442C38.7364 26.597 38.6886 26.1664 38.521 25.8525C38.3536 25.5387 38.0864 25.3134 37.7195 25.1765C37.3605 25.0317 36.9337 24.9552 36.4392 24.9472L33.8546 24.9351L29.4956 33.8193L31.3181 31.0434L30.8274 22.0983L36.5469 22.1103C37.2967 22.1183 38.0226 22.2069 38.7245 22.3759C39.4264 22.5449 40.0487 22.8105 40.591 23.1726C41.1335 23.5348 41.5523 24.0136 41.8474 24.6092C42.1505 25.2047 42.2741 25.937 42.2183 26.8062C42.1626 27.7559 41.8913 28.5365 41.4047 29.1481C40.9181 29.7517 40.2959 30.2064 39.5382 30.5122C38.7883 30.8181 37.9827 30.9951 37.1211 31.0434L35.9127 31.9608ZM34.4888 39.6747H29.0566C29.0566 39.6747 30.1404 38.5904 30.3554 38.3735C30.5703 38.1566 31.8021 36.8619 31.8021 36.8619H34.5965C35.1229 36.8619 35.6136 36.7734 36.0682 36.5964C36.5309 36.4113 36.9177 36.1377 37.2288 35.7755C37.54 35.4134 37.7354 34.9506 37.8151 34.3873C37.8869 33.9124 37.867 33.498 37.7554 33.1438C37.6436 32.7817 37.4363 32.5041 37.1331 32.3109C36.838 32.1097 36.4431 31.997 35.9486 31.9729L32.4069 31.9608L32.8496 29.4741L36.9177 29.4862L37.516 30.4519C38.2977 30.4921 38.9758 30.6732 39.5501 30.9951C40.1324 31.309 40.5751 31.7556 40.8782 32.3351C41.1813 32.9145 41.305 33.6106 41.2491 34.4235C41.1694 35.6789 40.8064 36.693 40.1603 37.4656C39.5142 38.2382 38.6886 38.8015 37.6836 39.1556C36.6864 39.5097 35.6215 39.6827 34.4888 39.6747Z" fill="white"/>
<path d="M48.7321 22.0983L45.7169 39.6747H42.2111L45.2383 22.0983H48.7321ZM53.9251 22.0983L53.4346 24.9351H39.6385L36.375 22.0983H53.9251Z" fill="white"/>
</g>
</g>
<defs>
<clipPath id="clip0_2299_7011">
<rect width="46" height="18" fill="white" transform="translate(8 22)"/>
</clipPath>
</defs>
</svg>
