<svg width="61" height="61" viewBox="0 0 61 61" fill="none" xmlns="http://www.w3.org/2000/svg">
<rect x="0.5" y="0.5" width="60" height="60" rx="30" fill="#1F4D52"/>
<path d="M11 43V39.7188C11 38.2257 11.5958 37.0104 12.7875 36.0729C13.9792 35.1354 15.55 34.6667 17.5 34.6667C17.8521 34.6667 18.1906 34.6753 18.5156 34.6927C18.8406 34.7101 19.1521 34.7535 19.45 34.8229C19.0708 35.5521 18.7865 36.316 18.5969 37.1146C18.4073 37.9132 18.3125 38.7465 18.3125 39.6146V43H11ZM20.75 43V39.6146C20.75 38.5035 20.987 37.4878 21.4609 36.5677C21.9349 35.6476 22.6052 34.8403 23.4719 34.1458C24.3385 33.4514 25.3745 32.9306 26.5797 32.5833C27.7849 32.2361 29.0917 32.0625 30.5 32.0625C31.9354 32.0625 33.2557 32.2361 34.4609 32.5833C35.6661 32.9306 36.7021 33.4514 37.5688 34.1458C38.4354 34.8403 39.099 35.6476 39.5594 36.5677C40.0198 37.4878 40.25 38.5035 40.25 39.6146V43H20.75ZM42.6875 43V39.6146C42.6875 38.7118 42.5995 37.8611 42.4234 37.0625C42.2474 36.2639 41.9833 35.5174 41.6313 34.8229C41.9292 34.7535 42.2339 34.7101 42.5453 34.6927C42.8568 34.6753 43.175 34.6667 43.5 34.6667C45.45 34.6667 47.0208 35.1267 48.2125 36.0469C49.4042 36.967 50 38.191 50 39.7188V43H42.6875ZM17.5 32.5833C16.6062 32.5833 15.8411 32.1753 15.2047 31.3594C14.5682 30.5434 14.25 29.5625 14.25 28.4167C14.25 27.2361 14.5682 26.2465 15.2047 25.4479C15.8411 24.6493 16.6062 24.25 17.5 24.25C18.4208 24.25 19.1927 24.6493 19.8156 25.4479C20.4385 26.2465 20.75 27.2361 20.75 28.4167C20.75 29.5625 20.4385 30.5434 19.8156 31.3594C19.1927 32.1753 18.4208 32.5833 17.5 32.5833ZM43.5 32.5833C42.6063 32.5833 41.8411 32.1753 41.2047 31.3594C40.5682 30.5434 40.25 29.5625 40.25 28.4167C40.25 27.2361 40.5682 26.2465 41.2047 25.4479C41.8411 24.6493 42.6063 24.25 43.5 24.25C44.4208 24.25 45.1927 24.6493 45.8156 25.4479C46.4385 26.2465 46.75 27.2361 46.75 28.4167C46.75 29.5625 46.4385 30.5434 45.8156 31.3594C45.1927 32.1753 44.4208 32.5833 43.5 32.5833ZM30.5 30.5C29.1458 30.5 27.9948 29.8924 27.0469 28.6771C26.099 27.4618 25.625 25.9861 25.625 24.25C25.625 22.4792 26.099 20.9948 27.0469 19.7969C27.9948 18.599 29.1458 18 30.5 18C31.8813 18 33.0391 18.599 33.9734 19.7969C34.9078 20.9948 35.375 22.4792 35.375 24.25C35.375 25.9861 34.9078 27.4618 33.9734 28.6771C33.0391 29.8924 31.8813 30.5 30.5 30.5Z" fill="white"/>
</svg>
