<svg width="61" height="61" viewBox="0 0 61 61" fill="none" xmlns="http://www.w3.org/2000/svg">
<rect x="0.5" y="0.5" width="60" height="60" rx="30" fill="#1F892E"/>
<path d="M21 34.6V31H41V34.6H21ZM21 41.8V38.2H35V41.8H21ZM17 49C15.9 49 14.9583 48.6475 14.175 47.9425C13.3917 47.2375 13 46.39 13 45.4V20.2C13 19.21 13.3917 18.3625 14.175 17.6575C14.9583 16.9525 15.9 16.6 17 16.6H19V13H23V16.6H39V13H43V16.6H45C46.1 16.6 47.0417 16.9525 47.825 17.6575C48.6083 18.3625 49 19.21 49 20.2V45.4C49 46.39 48.6083 47.2375 47.825 47.9425C47.0417 48.6475 46.1 49 45 49H17ZM17 45.4H45V27.4H17V45.4Z" fill="white"/>
</svg>
