<svg width="61" height="61" viewBox="0 0 61 61" fill="none" xmlns="http://www.w3.org/2000/svg">
<rect x="0.5" y="0.5" width="60" height="60" rx="30" fill="#DE3730"/>
<path d="M10.5 44L30.5 8L50.5 44H10.5ZM30.5 38.3158C31.0152 38.3158 31.447 38.1342 31.7955 37.7711C32.1439 37.4079 32.3182 36.9579 32.3182 36.4211C32.3182 35.8842 32.1439 35.4342 31.7955 35.0711C31.447 34.7079 31.0152 34.5263 30.5 34.5263C29.9848 34.5263 29.553 34.7079 29.2045 35.0711C28.8561 35.4342 28.6818 35.8842 28.6818 36.4211C28.6818 36.9579 28.8561 37.4079 29.2045 37.7711C29.553 38.1342 29.9848 38.3158 30.5 38.3158ZM28.6818 32.6316H32.3182V23.1579H28.6818V32.6316Z" fill="white"/>
</svg>
