<svg width="61" height="61" viewBox="0 0 61 61" fill="none" xmlns="http://www.w3.org/2000/svg">
<rect x="0.5" y="0.5" width="60" height="60" rx="30" fill="#5BC05D"/>
<path d="M43.2146 47L33.4615 36.9764L37.2024 33.1318L46.9555 43.1553L43.2146 47ZM18.6316 47L14.8907 43.1553L27.1822 30.5229L24.1538 27.4105L22.9069 28.6921L20.6356 26.3578V30.111L19.3887 31.3925L14 25.8544L15.247 24.5728H18.8988L16.6721 22.2843L22.996 15.785C23.5897 15.1748 24.2281 14.7323 24.9109 14.4577C25.5938 14.1831 26.2915 14.0458 27.004 14.0458C27.7166 14.0458 28.4143 14.1831 29.0972 14.4577C29.78 14.7323 30.4184 15.1748 31.0121 15.785L26.915 19.9958L29.1417 22.2843L27.8947 23.5659L30.9231 26.6782L34.9312 22.5589C34.8124 22.2233 34.7159 21.8724 34.6417 21.5062C34.5675 21.1401 34.5304 20.7739 34.5304 20.4078C34.5304 18.6075 35.1316 17.0895 36.334 15.8537C37.5364 14.6179 39.0135 14 40.7652 14C41.2105 14 41.6336 14.0458 42.0344 14.1373C42.4352 14.2288 42.8435 14.3662 43.2591 14.5492L38.8502 19.0804L42.0567 22.3759L46.4656 17.8447C46.6734 18.2718 46.8144 18.6914 46.8887 19.1033C46.9629 19.5153 47 19.9501 47 20.4078C47 22.208 46.3988 23.7261 45.1964 24.9619C43.9939 26.1976 42.5169 26.8155 40.7652 26.8155C40.4089 26.8155 40.0526 26.785 39.6964 26.724C39.3401 26.663 38.9987 26.5562 38.6721 26.4036L18.6316 47Z" fill="white"/>
</svg>
