<svg width="25" height="24" viewBox="0 0 25 24" fill="none" xmlns="http://www.w3.org/2000/svg">
<path d="M12.5 24C9.16667 24 6.33333 22.8333 4 20.5C1.66667 18.1667 0.5 15.3333 0.5 12C0.5 8.66667 1.66667 5.83333 4 3.5C6.33333 1.16667 9.16667 0 12.5 0C12.8111 0 13.1167 0.0111111 13.4167 0.0333333C13.7167 0.0555556 14.0111 0.0888889 14.3 0.133333C13.3889 0.777778 12.6611 1.61667 12.1167 2.65C11.5722 3.68333 11.3 4.8 11.3 6C11.3 8 12 9.7 13.4 11.1C14.8 12.5 16.5 13.2 18.5 13.2C19.7222 13.2 20.8444 12.9278 21.8667 12.3833C22.8889 11.8389 23.7222 11.1111 24.3667 10.2C24.4111 10.4889 24.4444 10.7833 24.4667 11.0833C24.4889 11.3833 24.5 11.6889 24.5 12C24.5 15.3333 23.3333 18.1667 21 20.5C18.6667 22.8333 15.8333 24 12.5 24ZM12.5 21.3333C14.4556 21.3333 16.2111 20.7944 17.7667 19.7167C19.3222 18.6389 20.4556 17.2333 21.1667 15.5C20.7222 15.6111 20.2778 15.7 19.8333 15.7667C19.3889 15.8333 18.9444 15.8667 18.5 15.8667C15.7667 15.8667 13.4389 14.9056 11.5167 12.9833C9.59444 11.0611 8.63333 8.73333 8.63333 6C8.63333 5.55556 8.66667 5.11111 8.73333 4.66667C8.8 4.22222 8.88889 3.77778 9 3.33333C7.26667 4.04444 5.86111 5.17778 4.78333 6.73333C3.70556 8.28889 3.16667 10.0444 3.16667 12C3.16667 14.5778 4.07778 16.7778 5.9 18.6C7.72222 20.4222 9.92222 21.3333 12.5 21.3333Z" fill="black"/>
</svg>
