<svg width="22" height="22" viewBox="0 0 22 22" fill="none" xmlns="http://www.w3.org/2000/svg">
<path d="M2.2915 10.0269C2.2915 8.9047 2.80537 7.84432 3.68614 7.14897L8.72781 3.16871C10.0599 2.11702 11.9397 2.11702 13.2719 3.16871L18.3135 7.14897C19.1943 7.84432 19.7082 8.9047 19.7082 10.0269V16.0417C19.7082 18.0667 18.0665 19.7083 16.0415 19.7083H14.6665C14.1602 19.7083 13.7498 19.2979 13.7498 18.7917V16.0417C13.7498 15.0291 12.929 14.2083 11.9165 14.2083H10.0832C9.07065 14.2083 8.24984 15.0291 8.24984 16.0417V18.7917C8.24984 19.2979 7.83943 19.7083 7.33317 19.7083H5.95817C3.93313 19.7083 2.2915 18.0667 2.2915 16.0417L2.2915 10.0269Z" fill="black" stroke="black" stroke-width="1.375"/>
</svg>
