<svg width="24" height="24" viewBox="0 0 24 24" fill="none" xmlns="http://www.w3.org/2000/svg">
<path d="M12 11C9.79086 11 8 9.20914 8 7C8 4.79086 9.79086 3 12 3C14.2091 3 16 4.79086 16 7C16 9.20914 14.2091 11 12 11Z" fill="#5BC05D" stroke="#5BC05D" stroke-width="1.5"/>
<path d="M5 17.0136C5 16.2025 5.50091 15.4756 6.25889 15.1869C9.95668 13.7782 14.0433 13.7782 17.7411 15.1869C18.4991 15.4756 19 16.2025 19 17.0136V18.672C19 19.8966 17.9094 20.8336 16.6987 20.6491L16.0673 20.5529C13.3713 20.1421 10.6287 20.1421 7.93266 20.5529L7.30128 20.6491C6.09064 20.8336 5 19.8966 5 18.672V17.0136Z" fill="#5BC05D" stroke="#5BC05D" stroke-width="1.5"/>
<path d="M8 17.1322C8 16.4668 8.45287 15.8868 9.09842 15.7254C11.0035 15.2491 12.9965 15.2491 14.9016 15.7254C15.5471 15.8868 16 16.4668 16 17.1322V17.1712C16 17.615 15.6169 17.9617 15.1753 17.9175L14.1996 17.82C12.7368 17.6737 11.2632 17.6737 9.8004 17.82L8.82467 17.9175C8.38313 17.9617 8 17.615 8 17.1712V17.1322Z" fill="white" stroke="white" stroke-width="1.5"/>
</svg>
