<svg width="24" height="24" viewBox="0 0 24 24" fill="none" xmlns="http://www.w3.org/2000/svg">
<path d="M7 23C6.45 23 5.97917 22.8042 5.5875 22.4125C5.19583 22.0208 5 21.55 5 21V3C5 2.45 5.19583 1.97917 5.5875 1.5875C5.97917 1.19583 6.45 1 7 1H17C17.55 1 18.0208 1.19583 18.4125 1.5875C18.8042 1.97917 19 2.45 19 3V21C19 21.55 18.8042 22.0208 18.4125 22.4125C18.0208 22.8042 17.55 23 17 23H7ZM7 20V21H17V20H7ZM7 4H17V3H7V4ZM12 16C11.1 16 10.225 16.1292 9.375 16.3875C8.525 16.6458 7.73333 17.0167 7 17.5V18H17V17.5C16.2667 17.0167 15.475 16.6458 14.625 16.3875C13.775 16.1292 12.9 16 12 16ZM12 14C12.9 14 13.7708 14.1042 14.6125 14.3125C15.4542 14.5208 16.25 14.8167 17 15.2V6H7V15.2C7.75 14.8167 8.54583 14.5208 9.3875 14.3125C10.2292 14.1042 11.1 14 12 14ZM12 13C12.8333 13 13.5417 12.7083 14.125 12.125C14.7083 11.5417 15 10.8333 15 10C15 9.16667 14.7083 8.45833 14.125 7.875C13.5417 7.29167 12.8333 7 12 7C11.1667 7 10.4583 7.29167 9.875 7.875C9.29167 8.45833 9 9.16667 9 10C9 10.8333 9.29167 11.5417 9.875 12.125C10.4583 12.7083 11.1667 13 12 13ZM12 11C11.7167 11 11.4792 10.9042 11.2875 10.7125C11.0958 10.5208 11 10.2833 11 10C11 9.71667 11.0958 9.47917 11.2875 9.2875C11.4792 9.09583 11.7167 9 12 9C12.2833 9 12.5208 9.09583 12.7125 9.2875C12.9042 9.47917 13 9.71667 13 10C13 10.2833 12.9042 10.5208 12.7125 10.7125C12.5208 10.9042 12.2833 11 12 11ZM12 18H17H7H12Z" fill="#5BC05D"/>
</svg>
