<svg width="22" height="22" viewBox="0 0 22 22" fill="none" xmlns="http://www.w3.org/2000/svg">
<path d="M4.88889 13.2V11H17.1111V13.2H4.88889ZM4.88889 17.6V15.4H13.4444V17.6H4.88889ZM2.44444 22C1.77222 22 1.19676 21.7846 0.718056 21.3537C0.239352 20.9229 0 20.405 0 19.8V4.4C0 3.795 0.239352 3.27708 0.718056 2.84625C1.19676 2.41542 1.77222 2.2 2.44444 2.2H3.66667V0H6.11111V2.2H15.8889V0H18.3333V2.2H19.5556C20.2278 2.2 20.8032 2.41542 21.2819 2.84625C21.7606 3.27708 22 3.795 22 4.4V19.8C22 20.405 21.7606 20.9229 21.2819 21.3537C20.8032 21.7846 20.2278 22 19.5556 22H2.44444ZM2.44444 19.8H19.5556V8.8H2.44444V19.8Z" fill="black"/>
</svg>
