<svg width="68" height="35" viewBox="0 0 68 35" fill="none" xmlns="http://www.w3.org/2000/svg">
<path d="M28 20H36V18H28V20ZM28 17H40V15H28V17ZM28 14H40V12H28V14ZM34 28L31.325 24H26C25.45 24 24.9792 23.8042 24.5875 23.4125C24.1958 23.0208 24 22.55 24 22V10C24 9.45 24.1958 8.97917 24.5875 8.5875C24.9792 8.19583 25.45 8 26 8H42C42.55 8 43.0208 8.19583 43.4125 8.5875C43.8042 8.97917 44 9.45 44 10V22C44 22.55 43.8042 23.0208 43.4125 23.4125C43.0208 23.8042 42.55 24 42 24H36.675L34 28ZM34 24.4L35.6 22H42V10H26V22H32.4L34 24.4Z" fill="#5BC05D"/>
</svg>
