<svg width="20" height="20" viewBox="0 0 20 20" fill="none" xmlns="http://www.w3.org/2000/svg">
<path d="M1.2915 9.02687C1.2915 7.9047 1.80537 6.84432 2.68614 6.14897L7.72781 2.16871C9.05994 1.11702 10.9397 1.11702 12.2719 2.16871L17.3135 6.14897C18.1943 6.84432 18.7082 7.9047 18.7082 9.02687V15.0417C18.7082 17.0667 17.0665 18.7083 15.0415 18.7083H13.6665C13.1602 18.7083 12.7498 18.2979 12.7498 17.7917V15.0417C12.7498 14.0291 11.929 13.2083 10.9165 13.2083H9.08317C8.07065 13.2083 7.24984 14.0291 7.24984 15.0417V17.7917C7.24984 18.2979 6.83943 18.7083 6.33317 18.7083H4.95817C2.93313 18.7083 1.2915 17.0667 1.2915 15.0417L1.2915 9.02687Z" fill="black" stroke="black" stroke-width="1.375"/>
</svg>
