<svg width="22" height="22" viewBox="0 0 22 22" fill="none" xmlns="http://www.w3.org/2000/svg">
<path d="M4.4 13.2H13.2V11H4.4V13.2ZM4.4 9.9H17.6V7.7H4.4V9.9ZM4.4 6.6H17.6V4.4H4.4V6.6ZM11 22L8.0575 17.6H2.2C1.595 17.6 1.07708 17.3846 0.64625 16.9537C0.215417 16.5229 0 16.005 0 15.4V2.2C0 1.595 0.215417 1.07708 0.64625 0.64625C1.07708 0.215417 1.595 0 2.2 0H19.8C20.405 0 20.9229 0.215417 21.3537 0.64625C21.7846 1.07708 22 1.595 22 2.2V15.4C22 16.005 21.7846 16.5229 21.3537 16.9537C20.9229 17.3846 20.405 17.6 19.8 17.6H13.9425L11 22Z" fill="black"/>
</svg>
