<svg width="17" height="20" viewBox="0 0 17 20" fill="none" xmlns="http://www.w3.org/2000/svg">
<path fill-rule="evenodd" clip-rule="evenodd" d="M8.84087 0.833252C5.75928 0.833252 3.26116 3.33138 3.26116 6.41297V8.33117C3.26116 9.3398 2.61119 10.2219 2.09458 11.0882C1.82301 11.5436 1.66699 12.0759 1.66699 12.6446C1.66699 14.114 2.71676 15.3746 4.17216 15.5764C5.61746 15.7768 7.42342 15.9784 8.8409 15.9784C10.2584 15.9784 12.0644 15.7768 13.5096 15.5764C14.9651 15.3746 16.0148 14.114 16.0148 12.6446C16.0148 12.0759 15.8588 11.5436 15.5872 11.0882C15.0706 10.2219 14.4206 9.33973 14.4206 8.33108V6.41296C14.4206 3.33137 11.9225 0.833252 8.84087 0.833252Z" fill="black"/>
<path d="M4.17216 15.5764L4.26659 14.8954H4.26659L4.17216 15.5764ZM13.5096 15.5764L13.6041 16.2574L13.5096 15.5764ZM3.94866 6.41297C3.94866 3.71107 6.13897 1.52075 8.84087 1.52075V0.145752C5.37958 0.145752 2.57366 2.95168 2.57366 6.41297H3.94866ZM3.94866 8.33117V6.41297H2.57366V8.33117H3.94866ZM2.35449 12.6446C2.35449 12.2033 2.47522 11.7922 2.68505 11.4404L1.5041 10.7361C1.1708 11.295 0.979492 11.9485 0.979492 12.6446H2.35449ZM4.26659 14.8954C3.16692 14.7429 2.35449 13.7869 2.35449 12.6446H0.979492C0.979492 14.441 2.2666 16.0062 4.07773 16.2574L4.26659 14.8954ZM8.8409 15.2909C7.47325 15.2909 5.7063 15.0951 4.26659 14.8954L4.07773 16.2574C5.52861 16.4586 7.37358 16.6659 8.8409 16.6659V15.2909ZM13.4152 14.8954C11.9755 15.0951 10.2086 15.2909 8.8409 15.2909V16.6659C10.3082 16.6659 12.1532 16.4586 13.6041 16.2574L13.4152 14.8954ZM15.3273 12.6446C15.3273 13.7869 14.5149 14.7429 13.4152 14.8954L13.6041 16.2574C15.4152 16.0062 16.7023 14.441 16.7023 12.6446H15.3273ZM14.9967 11.4403C15.2066 11.7922 15.3273 12.2033 15.3273 12.6446H16.7023C16.7023 11.9485 16.511 11.295 16.1777 10.7361L14.9967 11.4403ZM13.7331 6.41296V8.33108H15.1081V6.41296H13.7331ZM8.84087 1.52075C11.5428 1.52075 13.7331 3.71107 13.7331 6.41296H15.1081C15.1081 2.95168 12.3022 0.145752 8.84087 0.145752V1.52075ZM16.1777 10.7361C15.8945 10.2613 15.6374 9.88081 15.4253 9.45597C15.2222 9.04918 15.1081 8.68628 15.1081 8.33108H13.7331C13.7331 8.98453 13.9439 9.56704 14.195 10.0701C14.4371 10.5551 14.7633 11.0488 14.9967 11.4403L16.1777 10.7361ZM2.57366 8.33117C2.57366 8.68637 2.45952 9.04926 2.25647 9.45604C2.04441 9.88087 1.78725 10.2613 1.5041 10.7361L2.68505 11.4404C2.91852 11.0489 3.24464 10.5551 3.48672 10.0701C3.73781 9.5671 3.94866 8.98461 3.94866 8.33117H2.57366Z" fill="black"/>
<path d="M10.8335 18.0978C10.4051 18.7421 9.67251 19.1668 8.84075 19.1668C8.00898 19.1668 7.27641 18.7421 6.848 18.0978" stroke="black" stroke-width="1.375" stroke-linecap="round"/>
</svg>
