<svg width="22" height="22" viewBox="0 0 22 22" fill="none" xmlns="http://www.w3.org/2000/svg">
<path fill-rule="evenodd" clip-rule="evenodd" d="M10.8409 1.83325C7.75928 1.83325 5.26116 4.33138 5.26116 7.41297V9.33117C5.26116 10.3398 4.61119 11.2219 4.09458 12.0882C3.82301 12.5436 3.66699 13.0759 3.66699 13.6446C3.66699 15.114 4.71676 16.3746 6.17216 16.5764C7.61746 16.7768 9.42342 16.9784 10.8409 16.9784C12.2584 16.9784 14.0644 16.7768 15.5096 16.5764C16.9651 16.3746 18.0148 15.114 18.0148 13.6446C18.0148 13.0759 17.8588 12.5436 17.5872 12.0882C17.0706 11.2219 16.4206 10.3397 16.4206 9.33108V7.41296C16.4206 4.33137 13.9225 1.83325 10.8409 1.83325Z" fill="black"/>
<path d="M6.17216 16.5764L6.26659 15.8954H6.26659L6.17216 16.5764ZM15.5096 16.5764L15.6041 17.2574L15.5096 16.5764ZM5.94866 7.41297C5.94866 4.71107 8.13897 2.52075 10.8409 2.52075V1.14575C7.37958 1.14575 4.57366 3.95168 4.57366 7.41297H5.94866ZM5.94866 9.33117V7.41297H4.57366V9.33117H5.94866ZM4.35449 13.6446C4.35449 13.2033 4.47522 12.7922 4.68505 12.4404L3.5041 11.7361C3.1708 12.295 2.97949 12.9485 2.97949 13.6446H4.35449ZM6.26659 15.8954C5.16692 15.7429 4.35449 14.7869 4.35449 13.6446H2.97949C2.97949 15.441 4.2666 17.0062 6.07773 17.2574L6.26659 15.8954ZM10.8409 16.2909C9.47325 16.2909 7.7063 16.0951 6.26659 15.8954L6.07773 17.2574C7.52861 17.4586 9.37358 17.6659 10.8409 17.6659V16.2909ZM15.4152 15.8954C13.9755 16.0951 12.2086 16.2909 10.8409 16.2909V17.6659C12.3082 17.6659 14.1532 17.4586 15.6041 17.2574L15.4152 15.8954ZM17.3273 13.6446C17.3273 14.7869 16.5149 15.7429 15.4152 15.8954L15.6041 17.2574C17.4152 17.0062 18.7023 15.441 18.7023 13.6446H17.3273ZM16.9967 12.4403C17.2066 12.7922 17.3273 13.2033 17.3273 13.6446H18.7023C18.7023 12.9485 18.511 12.295 18.1777 11.7361L16.9967 12.4403ZM15.7331 7.41296V9.33108H17.1081V7.41296H15.7331ZM10.8409 2.52075C13.5428 2.52075 15.7331 4.71107 15.7331 7.41296H17.1081C17.1081 3.95168 14.3022 1.14575 10.8409 1.14575V2.52075ZM18.1777 11.7361C17.8945 11.2613 17.6374 10.8808 17.4253 10.456C17.2222 10.0492 17.1081 9.68628 17.1081 9.33108H15.7331C15.7331 9.98453 15.9439 10.567 16.195 11.0701C16.4371 11.5551 16.7633 12.0488 16.9967 12.4403L18.1777 11.7361ZM4.57366 9.33117C4.57366 9.68637 4.45952 10.0493 4.25647 10.456C4.04441 10.8809 3.78725 11.2613 3.5041 11.7361L4.68505 12.4404C4.91852 12.0489 5.24464 11.5551 5.48672 11.0701C5.73781 10.5671 5.94866 9.98461 5.94866 9.33117H4.57366Z" fill="black"/>
<path d="M12.8335 19.0978C12.4051 19.7421 11.6725 20.1668 10.8407 20.1668C10.009 20.1668 9.27641 19.7421 8.848 19.0978" stroke="black" stroke-width="1.375" stroke-linecap="round"/>
</svg>
