<svg width="68" height="35" viewBox="0 0 68 35" fill="none" xmlns="http://www.w3.org/2000/svg">
<path d="M27 28C26.45 28 25.9792 27.8042 25.5875 27.4125C25.1958 27.0208 25 26.55 25 26V12C25 11.45 25.1958 10.9792 25.5875 10.5875C25.9792 10.1958 26.45 10 27 10H28V8H30V10H38V8H40V10H41C41.55 10 42.0208 10.1958 42.4125 10.5875C42.8042 10.9792 43 11.45 43 12V26C43 26.55 42.8042 27.0208 42.4125 27.4125C42.0208 27.8042 41.55 28 41 28H27ZM27 26H41V16H27V26ZM27 14H41V12H27V14ZM29 20V18H39V20H29ZM29 24V22H36V24H29Z" fill="#5BC05D"/>
</svg>
