<svg width="68" height="35" viewBox="0 0 68 35" fill="none" xmlns="http://www.w3.org/2000/svg">
<path d="M25.292 16.0269C25.292 14.9047 25.8059 13.8443 26.6866 13.149L31.7283 9.16871C33.0604 8.11702 34.9402 8.11702 36.2724 9.16871L41.314 13.149C42.1948 13.8443 42.7087 14.9047 42.7087 16.0269V22.0417C42.7087 24.0667 41.067 25.7083 39.042 25.7083H37.667C37.1607 25.7083 36.7503 25.2979 36.7503 24.7917V22.0417C36.7503 21.0291 35.9295 20.2083 34.917 20.2083H33.0837C32.0711 20.2083 31.2503 21.0291 31.2503 22.0417V24.7917C31.2503 25.2979 30.8399 25.7083 30.3337 25.7083H28.9587C26.9336 25.7083 25.292 24.0667 25.292 22.0417L25.292 16.0269Z" fill="#5BC05D" stroke="#5BC05D" stroke-width="1.375"/>
</svg>
