<svg width="68" height="35" viewBox="0 0 68 35" fill="none" xmlns="http://www.w3.org/2000/svg">
<path fill-rule="evenodd" clip-rule="evenodd" d="M33.8409 8.8335C30.7593 8.8335 28.2612 11.3316 28.2612 14.4132V16.3314C28.2612 17.34 27.6112 18.2222 27.0946 19.0885C26.823 19.5439 26.667 20.0761 26.667 20.6449C26.667 22.1142 27.7168 23.3748 29.1722 23.5766C30.6175 23.7771 32.4234 23.9786 33.8409 23.9786C35.2584 23.9786 37.0644 23.7771 38.5096 23.5766C39.9651 23.3748 41.0148 22.1142 41.0148 20.6449C41.0148 20.0761 40.8588 19.5438 40.5872 19.0884C40.0706 18.2221 39.4206 17.34 39.4206 16.3313V14.4132C39.4206 11.3316 36.9225 8.8335 33.8409 8.8335Z" fill="#5BC05D"/>
<path d="M29.1722 23.5766L29.2666 22.8957H29.2666L29.1722 23.5766ZM38.5096 23.5766L38.6041 24.2576L38.5096 23.5766ZM27.0946 19.0885L27.6851 19.4406L27.0946 19.0885ZM28.9487 14.4132C28.9487 11.7113 31.139 9.521 33.8409 9.521V8.146C30.3796 8.146 27.5737 10.9519 27.5737 14.4132H28.9487ZM28.9487 16.3314V14.4132H27.5737V16.3314H28.9487ZM27.3545 20.6449C27.3545 20.2035 27.4752 19.7925 27.6851 19.4406L26.5041 18.7363C26.1708 19.2953 25.9795 19.9488 25.9795 20.6449H27.3545ZM29.2666 22.8957C28.1669 22.7432 27.3545 21.7872 27.3545 20.6449H25.9795C25.9795 22.4412 27.2666 24.0065 29.0777 24.2576L29.2666 22.8957ZM33.8409 23.2911C32.4733 23.2911 30.7063 23.0953 29.2666 22.8957L29.0777 24.2576C30.5286 24.4588 32.3736 24.6661 33.8409 24.6661V23.2911ZM38.4152 22.8957C36.9755 23.0953 35.2086 23.2911 33.8409 23.2911V24.6661C35.3082 24.6661 37.1532 24.4588 38.6041 24.2576L38.4152 22.8957ZM40.3273 20.6449C40.3273 21.7872 39.5149 22.7432 38.4152 22.8957L38.6041 24.2576C40.4152 24.0065 41.7023 22.4412 41.7023 20.6449H40.3273ZM39.9967 19.4406C40.2066 19.7924 40.3273 20.2035 40.3273 20.6449H41.7023C41.7023 19.9488 41.511 19.2952 41.1777 18.7363L39.9967 19.4406ZM38.7331 14.4132V16.3313H40.1081V14.4132H38.7331ZM33.8409 9.521C36.5428 9.521 38.7331 11.7113 38.7331 14.4132H40.1081C40.1081 10.9519 37.3022 8.146 33.8409 8.146V9.521ZM41.1777 18.7363C40.8945 18.2615 40.6374 17.8811 40.4253 17.4562C40.2222 17.0494 40.1081 16.6865 40.1081 16.3313H38.7331C38.7331 16.9848 38.9439 17.5673 39.195 18.0703C39.4371 18.5553 39.7633 19.0491 39.9967 19.4406L41.1777 18.7363ZM27.5737 16.3314C27.5737 16.6866 27.4595 17.0495 27.2565 17.4563C27.0444 17.8811 26.7872 18.2615 26.5041 18.7363L27.6851 19.4406C27.9185 19.0491 28.2446 18.5553 28.4867 18.0704C28.7378 17.5673 28.9487 16.9848 28.9487 16.3314H27.5737Z" fill="#5BC05D"/>
<path d="M35.834 26.0981C35.4056 26.7425 34.673 27.1671 33.8412 27.1671C33.0095 27.1671 32.2769 26.7425 31.8485 26.0981" stroke="#5BC05D" stroke-width="1.375" stroke-linecap="round"/>
</svg>
