<svg width="32" height="32" viewBox="0 0 32 32" fill="none" xmlns="http://www.w3.org/2000/svg">
<path d="M16 32C11.5556 32 7.77778 30.4444 4.66667 27.3333C1.55556 24.2222 0 20.4444 0 16C0 11.5556 1.55556 7.77778 4.66667 4.66667C7.77778 1.55556 11.5556 0 16 0C16.4148 0 16.8222 0.0148148 17.2222 0.0444444C17.6222 0.0740741 18.0148 0.118519 18.4 0.177778C17.1852 1.03704 16.2148 2.15556 15.4889 3.53333C14.763 4.91111 14.4 6.4 14.4 8C14.4 10.6667 15.3333 12.9333 17.2 14.8C19.0667 16.6667 21.3333 17.6 24 17.6C25.6296 17.6 27.1259 17.237 28.4889 16.5111C29.8519 15.7852 30.963 14.8148 31.8222 13.6C31.8815 13.9852 31.9259 14.3778 31.9556 14.7778C31.9852 15.1778 32 15.5852 32 16C32 20.4444 30.4444 24.2222 27.3333 27.3333C24.2222 30.4444 20.4444 32 16 32ZM16 28.4444C18.6074 28.4444 20.9481 27.7259 23.0222 26.2889C25.0963 24.8519 26.6074 22.9778 27.5556 20.6667C26.963 20.8148 26.3704 20.9333 25.7778 21.0222C25.1852 21.1111 24.5926 21.1556 24 21.1556C20.3556 21.1556 17.2519 19.8741 14.6889 17.3111C12.1259 14.7481 10.8444 11.6444 10.8444 8C10.8444 7.40741 10.8889 6.81481 10.9778 6.22222C11.0667 5.62963 11.1852 5.03704 11.3333 4.44444C9.02222 5.39259 7.14815 6.9037 5.71111 8.97778C4.27407 11.0519 3.55556 13.3926 3.55556 16C3.55556 19.437 4.77037 22.3704 7.2 24.8C9.62963 27.2296 12.563 28.4444 16 28.4444Z" fill="white"/>
</svg>
